# xmcd
#
# Track frame offsets:
#   150
#   16082
#   34348
#   53297
#   67472
#   88206
#   99928
#   122423
#   138892
#   151987
#   169083
#
# Disc length: 2765 seconds
#
# Revision: 0
# Processed by: cddbd v1.4PL0 Copyright (c) Steve Scherf et al.
# Submitted via: uFREEDB 1.6.0
#
DISCID=850acb0b
DTITLE=Oh Susanna - Sleepy Little Soldier
DYEAR=2001
DGENRE=Country
TTITLE0=Sleepy Little Soldier
TTITLE1=River Blue
TTITLE2=I've Got Dreams To Remember
TTITLE3=Kings Road
TTITLE4=All That Remains
TTITLE5=Beauty Boy
TTITLE6=Sacrifice
TTITLE7=Forever At Your Feet
TTITLE8=Ted's So Wasted
TTITLE9=St. Patrick's Day
TTITLE10=Ride On
EXTD=
EXTT0=
EXTT1=
EXTT2=
EXTT3=
EXTT4=
EXTT5=
EXTT6=
EXTT7=
EXTT8=
EXTT9=
EXTT10=
PLAYORDER=
